<?xml version="1.0" encoding="UTF-8" standalone="no"?>
<!DOCTYPE svg PUBLIC "-//W3C//DTD SVG 1.1//EN"
 "http://www.w3.org/Graphics/SVG/1.1/DTD/svg11.dtd">
<!-- Generated by graphviz version 2.47.3 (20210619.1520)
 -->
<!-- Pages: 1 -->
<svg width="1260pt" height="548pt"
 viewBox="0.00 0.00 1259.64 548.00" xmlns="http://www.w3.org/2000/svg" xmlns:xlink="http://www.w3.org/1999/xlink">
<g id="graph0" class="graph" transform="scale(1 1) rotate(0) translate(4 544)">
<polygon fill="white" stroke="transparent" points="-4,4 -4,-544 1255.64,-544 1255.64,4 -4,4"/>
<!-- n0 -->
<g id="node1" class="node">
<title>n0</title>
<ellipse fill="none" stroke="black" cx="343.8" cy="-522" rx="31.7" ry="18"/>
<text text-anchor="middle" x="343.8" y="-518.3" font-family="Times New Roman,serif" font-size="14.00">RAIZ</text>
</g>
<!-- n1 -->
<g id="node2" class="node">
<title>n1</title>
<ellipse fill="none" stroke="black" cx="343.8" cy="-450" rx="83.39" ry="18"/>
<text text-anchor="middle" x="343.8" y="-446.3" font-family="Times New Roman,serif" font-size="14.00">INSTRUCCIONES</text>
</g>
<!-- n0&#45;&gt;n1 -->
<g id="edge1" class="edge">
<title>n0&#45;&gt;n1</title>
<path fill="none" stroke="black" d="M343.8,-503.7C343.8,-495.98 343.8,-486.71 343.8,-478.11"/>
<polygon fill="black" stroke="black" points="347.3,-478.1 343.8,-468.1 340.3,-478.1 347.3,-478.1"/>
</g>
<!-- n2 -->
<g id="node3" class="node">
<title>n2</title>
<ellipse fill="none" stroke="black" cx="256.8" cy="-378" rx="121.58" ry="18"/>
<text text-anchor="middle" x="256.8" y="-374.3" font-family="Times New Roman,serif" font-size="14.00">DECLARACION ARREGLO</text>
</g>
<!-- n1&#45;&gt;n2 -->
<g id="edge2" class="edge">
<title>n1&#45;&gt;n2</title>
<path fill="none" stroke="black" d="M323.18,-432.41C312.07,-423.48 298.19,-412.3 285.99,-402.49"/>
<polygon fill="black" stroke="black" points="287.86,-399.5 277.87,-395.96 283.47,-404.95 287.86,-399.5"/>
</g>
<!-- n10 -->
<g id="node11" class="node">
<title>n10</title>
<ellipse fill="none" stroke="black" cx="622.8" cy="-378" rx="34.39" ry="18"/>
<text text-anchor="middle" x="622.8" y="-374.3" font-family="Times New Roman,serif" font-size="14.00">MAIN</text>
</g>
<!-- n1&#45;&gt;n10 -->
<g id="edge10" class="edge">
<title>n1&#45;&gt;n10</title>
<path fill="none" stroke="black" d="M395.95,-435.92C449.99,-422.36 533.29,-401.46 582.49,-389.11"/>
<polygon fill="black" stroke="black" points="583.6,-392.44 592.45,-386.61 581.89,-385.65 583.6,-392.44"/>
</g>
<!-- n3 -->
<g id="node4" class="node">
<title>n3</title>
<ellipse fill="none" stroke="black" cx="46.8" cy="-306" rx="46.59" ry="18"/>
<text text-anchor="middle" x="46.8" y="-302.3" font-family="Times New Roman,serif" font-size="14.00">ENTERO</text>
</g>
<!-- n2&#45;&gt;n3 -->
<g id="edge3" class="edge">
<title>n2&#45;&gt;n3</title>
<path fill="none" stroke="black" d="M209.93,-361.38C174.39,-349.53 125.88,-333.36 91.01,-321.74"/>
<polygon fill="black" stroke="black" points="91.7,-318.28 81.11,-318.44 89.49,-324.92 91.7,-318.28"/>
</g>
<!-- n4 -->
<g id="node5" class="node">
<title>n4</title>
<ellipse fill="none" stroke="black" cx="138.8" cy="-306" rx="27" ry="18"/>
<text text-anchor="middle" x="138.8" y="-302.3" font-family="Times New Roman,serif" font-size="14.00">1</text>
</g>
<!-- n2&#45;&gt;n4 -->
<g id="edge4" class="edge">
<title>n2&#45;&gt;n4</title>
<path fill="none" stroke="black" d="M228.83,-360.41C210.21,-349.36 185.81,-334.89 167.12,-323.8"/>
<polygon fill="black" stroke="black" points="168.83,-320.75 158.44,-318.66 165.26,-326.77 168.83,-320.75"/>
</g>
<!-- n5 -->
<g id="node6" class="node">
<title>n5</title>
<ellipse fill="none" stroke="black" cx="210.8" cy="-306" rx="27" ry="18"/>
<text text-anchor="middle" x="210.8" y="-302.3" font-family="Times New Roman,serif" font-size="14.00">a</text>
</g>
<!-- n2&#45;&gt;n5 -->
<g id="edge5" class="edge">
<title>n2&#45;&gt;n5</title>
<path fill="none" stroke="black" d="M245.66,-360.05C240.02,-351.47 233.06,-340.89 226.86,-331.44"/>
<polygon fill="black" stroke="black" points="229.61,-329.26 221.2,-322.83 223.76,-333.11 229.61,-329.26"/>
</g>
<!-- n6 -->
<g id="node7" class="node">
<title>n6</title>
<ellipse fill="none" stroke="black" cx="302.8" cy="-306" rx="46.59" ry="18"/>
<text text-anchor="middle" x="302.8" y="-302.3" font-family="Times New Roman,serif" font-size="14.00">ENTERO</text>
</g>
<!-- n2&#45;&gt;n6 -->
<g id="edge6" class="edge">
<title>n2&#45;&gt;n6</title>
<path fill="none" stroke="black" d="M267.93,-360.05C273.41,-351.71 280.13,-341.49 286.2,-332.25"/>
<polygon fill="black" stroke="black" points="289.2,-334.07 291.76,-323.79 283.35,-330.22 289.2,-334.07"/>
</g>
<!-- n7 -->
<g id="node8" class="node">
<title>n7</title>
<ellipse fill="none" stroke="black" cx="536.8" cy="-306" rx="168.97" ry="18"/>
<text text-anchor="middle" x="536.8" y="-302.3" font-family="Times New Roman,serif" font-size="14.00">EXPRESIONES DE LAS DIMENSIONES</text>
</g>
<!-- n2&#45;&gt;n7 -->
<g id="edge7" class="edge">
<title>n2&#45;&gt;n7</title>
<path fill="none" stroke="black" d="M315.83,-362.24C359.03,-351.44 417.9,-336.72 464.01,-325.2"/>
<polygon fill="black" stroke="black" points="465.1,-328.53 473.95,-322.71 463.4,-321.74 465.1,-328.53"/>
</g>
<!-- n8 -->
<g id="node9" class="node">
<title>n8</title>
<ellipse fill="none" stroke="black" cx="532.8" cy="-234" rx="57.69" ry="18"/>
<text text-anchor="middle" x="532.8" y="-230.3" font-family="Times New Roman,serif" font-size="14.00">PRIMITIVO</text>
</g>
<!-- n7&#45;&gt;n8 -->
<g id="edge8" class="edge">
<title>n7&#45;&gt;n8</title>
<path fill="none" stroke="black" d="M535.81,-287.7C535.37,-279.98 534.84,-270.71 534.35,-262.11"/>
<polygon fill="black" stroke="black" points="537.84,-261.89 533.77,-252.1 530.85,-262.29 537.84,-261.89"/>
</g>
<!-- n9 -->
<g id="node10" class="node">
<title>n9</title>
<ellipse fill="none" stroke="black" cx="528.8" cy="-162" rx="27" ry="18"/>
<text text-anchor="middle" x="528.8" y="-158.3" font-family="Times New Roman,serif" font-size="14.00">2</text>
</g>
<!-- n8&#45;&gt;n9 -->
<g id="edge9" class="edge">
<title>n8&#45;&gt;n9</title>
<path fill="none" stroke="black" d="M531.81,-215.7C531.37,-207.98 530.84,-198.71 530.35,-190.11"/>
<polygon fill="black" stroke="black" points="533.84,-189.89 529.77,-180.1 526.85,-190.29 533.84,-189.89"/>
</g>
<!-- n11 -->
<g id="node12" class="node">
<title>n11</title>
<ellipse fill="none" stroke="black" cx="814.8" cy="-306" rx="83.39" ry="18"/>
<text text-anchor="middle" x="814.8" y="-302.3" font-family="Times New Roman,serif" font-size="14.00">INSTRUCCIONES</text>
</g>
<!-- n10&#45;&gt;n11 -->
<g id="edge11" class="edge">
<title>n10&#45;&gt;n11</title>
<path fill="none" stroke="black" d="M650.3,-366.97C680.1,-356.11 728.25,-338.55 764.78,-325.23"/>
<polygon fill="black" stroke="black" points="766.08,-328.49 774.27,-321.77 763.68,-321.91 766.08,-328.49"/>
</g>
<!-- n12 -->
<g id="node13" class="node">
<title>n12</title>
<ellipse fill="none" stroke="black" cx="814.8" cy="-234" rx="124.28" ry="18"/>
<text text-anchor="middle" x="814.8" y="-230.3" font-family="Times New Roman,serif" font-size="14.00">MODIFICACION ARREGLO</text>
</g>
<!-- n11&#45;&gt;n12 -->
<g id="edge12" class="edge">
<title>n11&#45;&gt;n12</title>
<path fill="none" stroke="black" d="M814.8,-287.7C814.8,-279.98 814.8,-270.71 814.8,-262.11"/>
<polygon fill="black" stroke="black" points="818.3,-262.1 814.8,-252.1 811.3,-262.1 818.3,-262.1"/>
</g>
<!-- n19 -->
<g id="node20" class="node">
<title>n19</title>
<ellipse fill="none" stroke="black" cx="1101.8" cy="-234" rx="53.09" ry="18"/>
<text text-anchor="middle" x="1101.8" y="-230.3" font-family="Times New Roman,serif" font-size="14.00">IMPRIMIR</text>
</g>
<!-- n11&#45;&gt;n19 -->
<g id="edge19" class="edge">
<title>n11&#45;&gt;n19</title>
<path fill="none" stroke="black" d="M867.77,-292.08C919.7,-279.41 998.37,-260.23 1049.92,-247.65"/>
<polygon fill="black" stroke="black" points="1050.96,-251 1059.85,-245.23 1049.3,-244.2 1050.96,-251"/>
</g>
<!-- n13 -->
<g id="node14" class="node">
<title>n13</title>
<ellipse fill="none" stroke="black" cx="600.8" cy="-162" rx="27" ry="18"/>
<text text-anchor="middle" x="600.8" y="-158.3" font-family="Times New Roman,serif" font-size="14.00">a</text>
</g>
<!-- n12&#45;&gt;n13 -->
<g id="edge13" class="edge">
<title>n12&#45;&gt;n13</title>
<path fill="none" stroke="black" d="M756.33,-218C721.24,-208.41 675.95,-194.97 636.8,-180 634.96,-179.3 633.08,-178.54 631.2,-177.75"/>
<polygon fill="black" stroke="black" points="632.44,-174.47 621.88,-173.61 629.6,-180.87 632.44,-174.47"/>
</g>
<!-- n14 -->
<g id="node15" class="node">
<title>n14</title>
<ellipse fill="none" stroke="black" cx="814.8" cy="-162" rx="168.97" ry="18"/>
<text text-anchor="middle" x="814.8" y="-158.3" font-family="Times New Roman,serif" font-size="14.00">EXPRESIONES DE LAS DIMENSIONES</text>
</g>
<!-- n12&#45;&gt;n14 -->
<g id="edge14" class="edge">
<title>n12&#45;&gt;n14</title>
<path fill="none" stroke="black" d="M814.8,-215.7C814.8,-207.98 814.8,-198.71 814.8,-190.11"/>
<polygon fill="black" stroke="black" points="818.3,-190.1 814.8,-180.1 811.3,-190.1 818.3,-190.1"/>
</g>
<!-- n17 -->
<g id="node18" class="node">
<title>n17</title>
<ellipse fill="none" stroke="black" cx="1059.8" cy="-162" rx="57.69" ry="18"/>
<text text-anchor="middle" x="1059.8" y="-158.3" font-family="Times New Roman,serif" font-size="14.00">PRIMITIVO</text>
</g>
<!-- n12&#45;&gt;n17 -->
<g id="edge17" class="edge">
<title>n12&#45;&gt;n17</title>
<path fill="none" stroke="black" d="M868.26,-217.72C910.01,-205.8 967.65,-189.33 1008.77,-177.58"/>
<polygon fill="black" stroke="black" points="1009.93,-180.89 1018.59,-174.77 1008.01,-174.16 1009.93,-180.89"/>
</g>
<!-- n15 -->
<g id="node16" class="node">
<title>n15</title>
<ellipse fill="none" stroke="black" cx="814.8" cy="-90" rx="57.69" ry="18"/>
<text text-anchor="middle" x="814.8" y="-86.3" font-family="Times New Roman,serif" font-size="14.00">PRIMITIVO</text>
</g>
<!-- n14&#45;&gt;n15 -->
<g id="edge15" class="edge">
<title>n14&#45;&gt;n15</title>
<path fill="none" stroke="black" d="M814.8,-143.7C814.8,-135.98 814.8,-126.71 814.8,-118.11"/>
<polygon fill="black" stroke="black" points="818.3,-118.1 814.8,-108.1 811.3,-118.1 818.3,-118.1"/>
</g>
<!-- n16 -->
<g id="node17" class="node">
<title>n16</title>
<ellipse fill="none" stroke="black" cx="814.8" cy="-18" rx="27" ry="18"/>
<text text-anchor="middle" x="814.8" y="-14.3" font-family="Times New Roman,serif" font-size="14.00">0</text>
</g>
<!-- n15&#45;&gt;n16 -->
<g id="edge16" class="edge">
<title>n15&#45;&gt;n16</title>
<path fill="none" stroke="black" d="M814.8,-71.7C814.8,-63.98 814.8,-54.71 814.8,-46.11"/>
<polygon fill="black" stroke="black" points="818.3,-46.1 814.8,-36.1 811.3,-46.1 818.3,-46.1"/>
</g>
<!-- n18 -->
<g id="node19" class="node">
<title>n18</title>
<ellipse fill="none" stroke="black" cx="1059.8" cy="-90" rx="27" ry="18"/>
<text text-anchor="middle" x="1059.8" y="-86.3" font-family="Times New Roman,serif" font-size="14.00">5</text>
</g>
<!-- n17&#45;&gt;n18 -->
<g id="edge18" class="edge">
<title>n17&#45;&gt;n18</title>
<path fill="none" stroke="black" d="M1059.8,-143.7C1059.8,-135.98 1059.8,-126.71 1059.8,-118.11"/>
<polygon fill="black" stroke="black" points="1063.3,-118.1 1059.8,-108.1 1056.3,-118.1 1063.3,-118.1"/>
</g>
<!-- n20 -->
<g id="node21" class="node">
<title>n20</title>
<ellipse fill="none" stroke="black" cx="1193.8" cy="-162" rx="57.69" ry="18"/>
<text text-anchor="middle" x="1193.8" y="-158.3" font-family="Times New Roman,serif" font-size="14.00">PRIMITIVO</text>
</g>
<!-- n19&#45;&gt;n20 -->
<g id="edge20" class="edge">
<title>n19&#45;&gt;n20</title>
<path fill="none" stroke="black" d="M1122.67,-217.12C1135.14,-207.63 1151.16,-195.44 1164.84,-185.03"/>
<polygon fill="black" stroke="black" points="1167.16,-187.66 1173,-178.82 1162.92,-182.09 1167.16,-187.66"/>
</g>
<!-- n21 -->
<g id="node22" class="node">
<title>n21</title>
<ellipse fill="none" stroke="black" cx="1193.8" cy="-90" rx="32.49" ry="18"/>
<text text-anchor="middle" x="1193.8" y="-86.3" font-family="Times New Roman,serif" font-size="14.00">asdfw</text>
</g>
<!-- n20&#45;&gt;n21 -->
<g id="edge21" class="edge">
<title>n20&#45;&gt;n21</title>
<path fill="none" stroke="black" d="M1193.8,-143.7C1193.8,-135.98 1193.8,-126.71 1193.8,-118.11"/>
<polygon fill="black" stroke="black" points="1197.3,-118.1 1193.8,-108.1 1190.3,-118.1 1197.3,-118.1"/>
</g>
</g>
</svg>
