<?xml version="1.0" encoding="UTF-8" standalone="no"?>
<!DOCTYPE svg PUBLIC "-//W3C//DTD SVG 1.1//EN"
 "http://www.w3.org/Graphics/SVG/1.1/DTD/svg11.dtd">
<!-- Generated by graphviz version 2.47.3 (20210619.1520)
 -->
<!-- Pages: 1 -->
<svg width="1551pt" height="620pt"
 viewBox="0.00 0.00 1551.04 620.00" xmlns="http://www.w3.org/2000/svg" xmlns:xlink="http://www.w3.org/1999/xlink">
<g id="graph0" class="graph" transform="scale(1 1) rotate(0) translate(4 616)">
<polygon fill="white" stroke="transparent" points="-4,4 -4,-616 1547.04,-616 1547.04,4 -4,4"/>
<!-- n0 -->
<g id="node1" class="node">
<title>n0</title>
<ellipse fill="none" stroke="black" cx="964.8" cy="-594" rx="31.7" ry="18"/>
<text text-anchor="middle" x="964.8" y="-590.3" font-family="Times New Roman,serif" font-size="14.00">RAIZ</text>
</g>
<!-- n1 -->
<g id="node2" class="node">
<title>n1</title>
<ellipse fill="none" stroke="black" cx="964.8" cy="-522" rx="83.39" ry="18"/>
<text text-anchor="middle" x="964.8" y="-518.3" font-family="Times New Roman,serif" font-size="14.00">INSTRUCCIONES</text>
</g>
<!-- n0&#45;&gt;n1 -->
<g id="edge1" class="edge">
<title>n0&#45;&gt;n1</title>
<path fill="none" stroke="black" d="M964.8,-575.7C964.8,-567.98 964.8,-558.71 964.8,-550.11"/>
<polygon fill="black" stroke="black" points="968.3,-550.1 964.8,-540.1 961.3,-550.1 968.3,-550.1"/>
</g>
<!-- n2 -->
<g id="node3" class="node">
<title>n2</title>
<ellipse fill="none" stroke="black" cx="964.8" cy="-450" rx="34.39" ry="18"/>
<text text-anchor="middle" x="964.8" y="-446.3" font-family="Times New Roman,serif" font-size="14.00">MAIN</text>
</g>
<!-- n1&#45;&gt;n2 -->
<g id="edge2" class="edge">
<title>n1&#45;&gt;n2</title>
<path fill="none" stroke="black" d="M964.8,-503.7C964.8,-495.98 964.8,-486.71 964.8,-478.11"/>
<polygon fill="black" stroke="black" points="968.3,-478.1 964.8,-468.1 961.3,-478.1 968.3,-478.1"/>
</g>
<!-- n3 -->
<g id="node4" class="node">
<title>n3</title>
<ellipse fill="none" stroke="black" cx="964.8" cy="-378" rx="83.39" ry="18"/>
<text text-anchor="middle" x="964.8" y="-374.3" font-family="Times New Roman,serif" font-size="14.00">INSTRUCCIONES</text>
</g>
<!-- n2&#45;&gt;n3 -->
<g id="edge3" class="edge">
<title>n2&#45;&gt;n3</title>
<path fill="none" stroke="black" d="M964.8,-431.7C964.8,-423.98 964.8,-414.71 964.8,-406.11"/>
<polygon fill="black" stroke="black" points="968.3,-406.1 964.8,-396.1 961.3,-406.1 968.3,-406.1"/>
</g>
<!-- n4 -->
<g id="node5" class="node">
<title>n4</title>
<ellipse fill="none" stroke="black" cx="256.8" cy="-306" rx="121.58" ry="18"/>
<text text-anchor="middle" x="256.8" y="-302.3" font-family="Times New Roman,serif" font-size="14.00">DECLARACION ARREGLO</text>
</g>
<!-- n3&#45;&gt;n4 -->
<g id="edge4" class="edge">
<title>n3&#45;&gt;n4</title>
<path fill="none" stroke="black" d="M890.7,-369.67C765.25,-357.27 510.54,-332.09 365.07,-317.71"/>
<polygon fill="black" stroke="black" points="365.09,-314.19 354.79,-316.69 364.4,-321.16 365.09,-314.19"/>
</g>
<!-- n12 -->
<g id="node13" class="node">
<title>n12</title>
<ellipse fill="none" stroke="black" cx="964.8" cy="-306" rx="124.28" ry="18"/>
<text text-anchor="middle" x="964.8" y="-302.3" font-family="Times New Roman,serif" font-size="14.00">MODIFICACION ARREGLO</text>
</g>
<!-- n3&#45;&gt;n12 -->
<g id="edge12" class="edge">
<title>n3&#45;&gt;n12</title>
<path fill="none" stroke="black" d="M964.8,-359.7C964.8,-351.98 964.8,-342.71 964.8,-334.11"/>
<polygon fill="black" stroke="black" points="968.3,-334.1 964.8,-324.1 961.3,-334.1 968.3,-334.1"/>
</g>
<!-- n19 -->
<g id="node20" class="node">
<title>n19</title>
<ellipse fill="none" stroke="black" cx="1275.8" cy="-306" rx="53.09" ry="18"/>
<text text-anchor="middle" x="1275.8" y="-302.3" font-family="Times New Roman,serif" font-size="14.00">IMPRIMIR</text>
</g>
<!-- n3&#45;&gt;n19 -->
<g id="edge19" class="edge">
<title>n3&#45;&gt;n19</title>
<path fill="none" stroke="black" d="M1020.4,-364.49C1077.75,-351.58 1166.56,-331.59 1222.9,-318.91"/>
<polygon fill="black" stroke="black" points="1223.7,-322.31 1232.69,-316.7 1222.16,-315.48 1223.7,-322.31"/>
</g>
<!-- n5 -->
<g id="node6" class="node">
<title>n5</title>
<ellipse fill="none" stroke="black" cx="46.8" cy="-234" rx="46.59" ry="18"/>
<text text-anchor="middle" x="46.8" y="-230.3" font-family="Times New Roman,serif" font-size="14.00">ENTERO</text>
</g>
<!-- n4&#45;&gt;n5 -->
<g id="edge5" class="edge">
<title>n4&#45;&gt;n5</title>
<path fill="none" stroke="black" d="M209.93,-289.38C174.39,-277.53 125.88,-261.36 91.01,-249.74"/>
<polygon fill="black" stroke="black" points="91.7,-246.28 81.11,-246.44 89.49,-252.92 91.7,-246.28"/>
</g>
<!-- n6 -->
<g id="node7" class="node">
<title>n6</title>
<ellipse fill="none" stroke="black" cx="138.8" cy="-234" rx="27" ry="18"/>
<text text-anchor="middle" x="138.8" y="-230.3" font-family="Times New Roman,serif" font-size="14.00">1</text>
</g>
<!-- n4&#45;&gt;n6 -->
<g id="edge6" class="edge">
<title>n4&#45;&gt;n6</title>
<path fill="none" stroke="black" d="M228.83,-288.41C210.21,-277.36 185.81,-262.89 167.12,-251.8"/>
<polygon fill="black" stroke="black" points="168.83,-248.75 158.44,-246.66 165.26,-254.77 168.83,-248.75"/>
</g>
<!-- n7 -->
<g id="node8" class="node">
<title>n7</title>
<ellipse fill="none" stroke="black" cx="210.8" cy="-234" rx="27" ry="18"/>
<text text-anchor="middle" x="210.8" y="-230.3" font-family="Times New Roman,serif" font-size="14.00">a</text>
</g>
<!-- n4&#45;&gt;n7 -->
<g id="edge7" class="edge">
<title>n4&#45;&gt;n7</title>
<path fill="none" stroke="black" d="M245.66,-288.05C240.02,-279.47 233.06,-268.89 226.86,-259.44"/>
<polygon fill="black" stroke="black" points="229.61,-257.26 221.2,-250.83 223.76,-261.11 229.61,-257.26"/>
</g>
<!-- n8 -->
<g id="node9" class="node">
<title>n8</title>
<ellipse fill="none" stroke="black" cx="302.8" cy="-234" rx="46.59" ry="18"/>
<text text-anchor="middle" x="302.8" y="-230.3" font-family="Times New Roman,serif" font-size="14.00">ENTERO</text>
</g>
<!-- n4&#45;&gt;n8 -->
<g id="edge8" class="edge">
<title>n4&#45;&gt;n8</title>
<path fill="none" stroke="black" d="M267.93,-288.05C273.41,-279.71 280.13,-269.49 286.2,-260.25"/>
<polygon fill="black" stroke="black" points="289.2,-262.07 291.76,-251.79 283.35,-258.22 289.2,-262.07"/>
</g>
<!-- n9 -->
<g id="node10" class="node">
<title>n9</title>
<ellipse fill="none" stroke="black" cx="536.8" cy="-234" rx="168.97" ry="18"/>
<text text-anchor="middle" x="536.8" y="-230.3" font-family="Times New Roman,serif" font-size="14.00">EXPRESIONES DE LAS DIMENSIONES</text>
</g>
<!-- n4&#45;&gt;n9 -->
<g id="edge9" class="edge">
<title>n4&#45;&gt;n9</title>
<path fill="none" stroke="black" d="M315.83,-290.24C359.03,-279.44 417.9,-264.72 464.01,-253.2"/>
<polygon fill="black" stroke="black" points="465.1,-256.53 473.95,-250.71 463.4,-249.74 465.1,-256.53"/>
</g>
<!-- n10 -->
<g id="node11" class="node">
<title>n10</title>
<ellipse fill="none" stroke="black" cx="536.8" cy="-162" rx="57.69" ry="18"/>
<text text-anchor="middle" x="536.8" y="-158.3" font-family="Times New Roman,serif" font-size="14.00">PRIMITIVO</text>
</g>
<!-- n9&#45;&gt;n10 -->
<g id="edge10" class="edge">
<title>n9&#45;&gt;n10</title>
<path fill="none" stroke="black" d="M536.8,-215.7C536.8,-207.98 536.8,-198.71 536.8,-190.11"/>
<polygon fill="black" stroke="black" points="540.3,-190.1 536.8,-180.1 533.3,-190.1 540.3,-190.1"/>
</g>
<!-- n11 -->
<g id="node12" class="node">
<title>n11</title>
<ellipse fill="none" stroke="black" cx="536.8" cy="-90" rx="27" ry="18"/>
<text text-anchor="middle" x="536.8" y="-86.3" font-family="Times New Roman,serif" font-size="14.00">2</text>
</g>
<!-- n10&#45;&gt;n11 -->
<g id="edge11" class="edge">
<title>n10&#45;&gt;n11</title>
<path fill="none" stroke="black" d="M536.8,-143.7C536.8,-135.98 536.8,-126.71 536.8,-118.11"/>
<polygon fill="black" stroke="black" points="540.3,-118.1 536.8,-108.1 533.3,-118.1 540.3,-118.1"/>
</g>
<!-- n13 -->
<g id="node14" class="node">
<title>n13</title>
<ellipse fill="none" stroke="black" cx="750.8" cy="-234" rx="27" ry="18"/>
<text text-anchor="middle" x="750.8" y="-230.3" font-family="Times New Roman,serif" font-size="14.00">a</text>
</g>
<!-- n12&#45;&gt;n13 -->
<g id="edge13" class="edge">
<title>n12&#45;&gt;n13</title>
<path fill="none" stroke="black" d="M906.33,-290C871.24,-280.41 825.95,-266.97 786.8,-252 784.96,-251.3 783.08,-250.54 781.2,-249.75"/>
<polygon fill="black" stroke="black" points="782.44,-246.47 771.88,-245.61 779.6,-252.87 782.44,-246.47"/>
</g>
<!-- n14 -->
<g id="node15" class="node">
<title>n14</title>
<ellipse fill="none" stroke="black" cx="964.8" cy="-234" rx="168.97" ry="18"/>
<text text-anchor="middle" x="964.8" y="-230.3" font-family="Times New Roman,serif" font-size="14.00">EXPRESIONES DE LAS DIMENSIONES</text>
</g>
<!-- n12&#45;&gt;n14 -->
<g id="edge14" class="edge">
<title>n12&#45;&gt;n14</title>
<path fill="none" stroke="black" d="M964.8,-287.7C964.8,-279.98 964.8,-270.71 964.8,-262.11"/>
<polygon fill="black" stroke="black" points="968.3,-262.1 964.8,-252.1 961.3,-262.1 968.3,-262.1"/>
</g>
<!-- n17 -->
<g id="node18" class="node">
<title>n17</title>
<ellipse fill="none" stroke="black" cx="1209.8" cy="-234" rx="57.69" ry="18"/>
<text text-anchor="middle" x="1209.8" y="-230.3" font-family="Times New Roman,serif" font-size="14.00">PRIMITIVO</text>
</g>
<!-- n12&#45;&gt;n17 -->
<g id="edge17" class="edge">
<title>n12&#45;&gt;n17</title>
<path fill="none" stroke="black" d="M1018.26,-289.72C1060.01,-277.8 1117.65,-261.33 1158.77,-249.58"/>
<polygon fill="black" stroke="black" points="1159.93,-252.89 1168.59,-246.77 1158.01,-246.16 1159.93,-252.89"/>
</g>
<!-- n15 -->
<g id="node16" class="node">
<title>n15</title>
<ellipse fill="none" stroke="black" cx="964.8" cy="-162" rx="57.69" ry="18"/>
<text text-anchor="middle" x="964.8" y="-158.3" font-family="Times New Roman,serif" font-size="14.00">PRIMITIVO</text>
</g>
<!-- n14&#45;&gt;n15 -->
<g id="edge15" class="edge">
<title>n14&#45;&gt;n15</title>
<path fill="none" stroke="black" d="M964.8,-215.7C964.8,-207.98 964.8,-198.71 964.8,-190.11"/>
<polygon fill="black" stroke="black" points="968.3,-190.1 964.8,-180.1 961.3,-190.1 968.3,-190.1"/>
</g>
<!-- n16 -->
<g id="node17" class="node">
<title>n16</title>
<ellipse fill="none" stroke="black" cx="964.8" cy="-90" rx="27" ry="18"/>
<text text-anchor="middle" x="964.8" y="-86.3" font-family="Times New Roman,serif" font-size="14.00">0</text>
</g>
<!-- n15&#45;&gt;n16 -->
<g id="edge16" class="edge">
<title>n15&#45;&gt;n16</title>
<path fill="none" stroke="black" d="M964.8,-143.7C964.8,-135.98 964.8,-126.71 964.8,-118.11"/>
<polygon fill="black" stroke="black" points="968.3,-118.1 964.8,-108.1 961.3,-118.1 968.3,-118.1"/>
</g>
<!-- n18 -->
<g id="node19" class="node">
<title>n18</title>
<ellipse fill="none" stroke="black" cx="1209.8" cy="-162" rx="27" ry="18"/>
<text text-anchor="middle" x="1209.8" y="-158.3" font-family="Times New Roman,serif" font-size="14.00">5</text>
</g>
<!-- n17&#45;&gt;n18 -->
<g id="edge18" class="edge">
<title>n17&#45;&gt;n18</title>
<path fill="none" stroke="black" d="M1209.8,-215.7C1209.8,-207.98 1209.8,-198.71 1209.8,-190.11"/>
<polygon fill="black" stroke="black" points="1213.3,-190.1 1209.8,-180.1 1206.3,-190.1 1213.3,-190.1"/>
</g>
<!-- n20 -->
<g id="node21" class="node">
<title>n20</title>
<ellipse fill="none" stroke="black" cx="1391.8" cy="-234" rx="106.68" ry="18"/>
<text text-anchor="middle" x="1391.8" y="-230.3" font-family="Times New Roman,serif" font-size="14.00">LLAMADA A FUNCION</text>
</g>
<!-- n19&#45;&gt;n20 -->
<g id="edge20" class="edge">
<title>n19&#45;&gt;n20</title>
<path fill="none" stroke="black" d="M1300.68,-289.98C1316.67,-280.34 1337.7,-267.64 1355.53,-256.88"/>
<polygon fill="black" stroke="black" points="1357.77,-259.62 1364.52,-251.46 1354.15,-253.63 1357.77,-259.62"/>
</g>
<!-- n21 -->
<g id="node22" class="node">
<title>n21</title>
<ellipse fill="none" stroke="black" cx="1338.8" cy="-162" rx="32.49" ry="18"/>
<text text-anchor="middle" x="1338.8" y="-158.3" font-family="Times New Roman,serif" font-size="14.00">length</text>
</g>
<!-- n20&#45;&gt;n21 -->
<g id="edge21" class="edge">
<title>n20&#45;&gt;n21</title>
<path fill="none" stroke="black" d="M1378.97,-216.05C1372.33,-207.29 1364.12,-196.45 1356.86,-186.86"/>
<polygon fill="black" stroke="black" points="1359.61,-184.69 1350.78,-178.83 1354.03,-188.91 1359.61,-184.69"/>
</g>
<!-- n22 -->
<g id="node23" class="node">
<title>n22</title>
<ellipse fill="none" stroke="black" cx="1461.8" cy="-162" rx="72.59" ry="18"/>
<text text-anchor="middle" x="1461.8" y="-158.3" font-family="Times New Roman,serif" font-size="14.00">PARAMETROS</text>
</g>
<!-- n20&#45;&gt;n22 -->
<g id="edge22" class="edge">
<title>n20&#45;&gt;n22</title>
<path fill="none" stroke="black" d="M1408.74,-216.05C1417.43,-207.37 1428.15,-196.64 1437.68,-187.11"/>
<polygon fill="black" stroke="black" points="1440.41,-189.33 1445.01,-179.79 1435.46,-184.39 1440.41,-189.33"/>
</g>
<!-- n23 -->
<g id="node24" class="node">
<title>n23</title>
<ellipse fill="none" stroke="black" cx="1461.8" cy="-90" rx="81.49" ry="18"/>
<text text-anchor="middle" x="1461.8" y="-86.3" font-family="Times New Roman,serif" font-size="14.00">IDENTIFICADOR</text>
</g>
<!-- n22&#45;&gt;n23 -->
<g id="edge23" class="edge">
<title>n22&#45;&gt;n23</title>
<path fill="none" stroke="black" d="M1461.8,-143.7C1461.8,-135.98 1461.8,-126.71 1461.8,-118.11"/>
<polygon fill="black" stroke="black" points="1465.3,-118.1 1461.8,-108.1 1458.3,-118.1 1465.3,-118.1"/>
</g>
<!-- n24 -->
<g id="node25" class="node">
<title>n24</title>
<ellipse fill="none" stroke="black" cx="1461.8" cy="-18" rx="27" ry="18"/>
<text text-anchor="middle" x="1461.8" y="-14.3" font-family="Times New Roman,serif" font-size="14.00">a</text>
</g>
<!-- n23&#45;&gt;n24 -->
<g id="edge24" class="edge">
<title>n23&#45;&gt;n24</title>
<path fill="none" stroke="black" d="M1461.8,-71.7C1461.8,-63.98 1461.8,-54.71 1461.8,-46.11"/>
<polygon fill="black" stroke="black" points="1465.3,-46.1 1461.8,-36.1 1458.3,-46.1 1465.3,-46.1"/>
</g>
</g>
</svg>
